<?xml version="1.0" standalone="no"?>
<!DOCTYPE svg PUBLIC "-//W3C//DTD SVG 20010904//EN"
 "http://www.w3.org/TR/2001/REC-SVG-20010904/DTD/svg10.dtd">
<svg version="1.0" xmlns="http://www.w3.org/2000/svg"
 width="870.000000pt" height="870.000000pt" viewBox="0 0 870.000000 870.000000"
 preserveAspectRatio="xMidYMid meet">
<metadata>
Created by potrace 1.11, written by Peter Selinger 2001-2013
</metadata>
<g transform="translate(0.000000,870.000000) scale(0.100000,-0.100000)"
fill="#000000" stroke="none">
<path d="M4890 7035 c-552 -67 -947 -338 -1239 -849 -40 -69 -103 -191 -142
-271 l-69 -145 -62 46 c-177 130 -402 191 -639 172 -393 -29 -730 -318 -836
-714 -23 -86 -26 -119 -27 -251 l0 -151 -95 -23 c-272 -62 -506 -194 -712
-399 -309 -307 -462 -695 -446 -1130 7 -176 28 -294 83 -452 75 -217 184 -388
364 -568 217 -218 448 -343 760 -412 l105 -23 2505 0 c2083 0 2518 2 2580 14
323 59 586 196 810 420 186 188 297 366 374 603 60 182 71 259 70 478 -1 161
-5 212 -22 293 -69 315 -202 559 -421 777 -203 202 -427 328 -707 400 l-41 10
-6 213 c-9 371 -78 666 -227 972 -184 378 -435 637 -792 816 -168 85 -392 149
-603 174 -154 18 -418 18 -565 0z"/>
</g>
</svg>
